<svg xmlns="http://www.w3.org/2000/svg" viewBox="0 0 800 200">
  <g fill="#1A535C">
    <path d="M145.2,150.3l28.3-28.3l-28.3,90.5l-28.3-90.5l28.3,28.3z M145.2,49.7l-28.3,90.5l28.3-28.3l28.3,28.3L145.2,49.7z M195.5,100l-90.5,28.3l28.3-28.3l-28.3-28.3L195.5,100z M94.9,100l90.5-28.3l-28.3,28.3l28.3,28.3L94.9,100z M145.2,100l-17.2-17.2l-17.2,17.2l17.2,17.2L145.2,100z"/>
    <path d="M253.5,148V76.8h36.5c9.7,0,17.9,3.2,24.6,9.7s10.1,14.4,10.1,23.7s-3.4,17.2-10.1,23.7s-14.9,9.7-24.6,9.7h-16.5v4.4h-20V148z M273.5,123.9h16.5c4.9,0,9.2-1.7,12.8-5s5.5-7.5,5.5-12.6s-1.8-9.2-5.5-12.6s-7.9-5-12.8-5h-16.5V123.9z"/>
    <path d="M356.4,148c-9.7,0-18.1-3.4-25.2-10.1s-10.6-14.9-10.6-24.6s3.5-18.1,10.6-24.8c7.1-6.7,15.5-10.1,25.2-10.1c9.7,0,18.1,3.4,25.2,10.1c7.1,6.7,10.6,14.9,10.6,24.8s-3.5,18.1-10.6,24.8S366.2,148,356.4,148z M356.4,128.9c4.7,0,8.7-1.6,12-4.8s5-7.2,5-12s-1.7-8.7-5-12s-7.3-4.8-12-4.8s-8.7,1.6-12,4.8s-5,7.2-5,12s1.7,8.7,5,12S351.7,128.9,356.4,128.9z"/>
    <path d="M419.1,148V76.8h20V128h32.8v20H419.1z"/>
    <path d="M507.6,148l-6.6-16.5h-32.5L461.9,148h-21L475.6,76.8h21.3L528.6,148H507.6z M484.7,97.5l-10.4,25.4h20.8L484.7,97.5z"/>
    <path d="M554.8,148V76.8h37.9c9.4,0,17.2,2.8,23.3,8.5s9.2,12.8,9.2,21.4c0,6.7-2,12.6-5.9,17.7s-9.1,8.6-15.6,10.6l23.3,33.3h-24.3l-19.2-29h-8.8V148H554.8z M574.8,102.7h16.5c3.8,0,7-1.2,9.5-3.5s3.8-5.5,3.8-9.5c0-4-1.3-7.3-3.8-9.7s-5.7-3.5-9.5-3.5h-16.5V102.7z"/>
    <path d="M644.8,148V76.8h20V148H644.8z"/>
    <path d="M705.7,148c-8.7,0-16.1-2.7-22.3-8s-9.2-12.3-9.2-20.8h20c0,4.4,1.6,8.1,4.8,11.1s7.2,4.5,12,4.5c3.5,0,6.5-0.9,8.8-2.7s3.5-3.9,3.5-6.4c0-2.1-0.9-3.9-2.7-5.4s-5.4-2.7-10.8-3.7l-12.8-2.5c-8.8-1.7-15.6-4.9-20.2-9.4s-7-10.3-7-17.3c0-7.3,2.7-13.3,8.2-18s12.5-7.1,21.1-7.1c7.9,0,14.9,2.2,21,6.6s9.2,10.4,9.4,17.9h-20c-0.4-3.8-2-6.8-4.8-9s-6.3-3.3-10.6-3.3c-3.2,0-5.9,0.8-8.2,2.4s-3.4,3.7-3.4,6.2c0,2.1,0.8,3.9,2.4,5.4s4.5,2.7,8.7,3.7l12.8,3.1c8.9,2.2,15.7,5.5,20.4,10.1s7,10.5,7,17.7c0,7.6-2.9,13.7-8.7,18.5S714.5,148,705.7,148z"/>
  </g>
</svg>